<svg width="44.000000" height="41.000000" viewBox="0 0 44 41" fill="none" xmlns="http://www.w3.org/2000/svg" xmlns:xlink="http://www.w3.org/1999/xlink">
	<desc>
			Created with Pixso.
	</desc>
	<defs/>
	<path id="Vector" d="M36.85 34.78C39.06 32.88 40.83 30.59 42.04 28.05C43.24 25.51 43.87 22.77 43.86 20C43.86 8.78 33.87 -0.32 21.54 -0.32C9.22 -0.32 -0.77 8.78 -0.77 20C-0.78 22.77 -0.16 25.51 1.05 28.05C2.26 30.59 4.02 32.88 6.24 34.78C10.38 38.34 15.85 40.31 21.54 40.31C27.23 40.31 32.71 38.34 36.85 34.78ZM8.14 32.1C9.75 30.27 11.79 28.8 14.11 27.78C16.43 26.77 18.97 26.24 21.54 26.25C24.12 26.24 26.66 26.77 28.98 27.78C31.3 28.8 33.34 30.27 34.95 32.1C33.19 33.72 31.11 34.99 28.8 35.87C26.5 36.74 24.04 37.19 21.54 37.18C19.05 37.19 16.58 36.74 14.28 35.87C11.98 34.99 9.89 33.72 8.14 32.1ZM30.13 13.75C30.13 15.82 29.22 17.8 27.61 19.27C26 20.73 23.82 21.56 21.54 21.56C19.27 21.56 17.08 20.73 15.47 19.27C13.86 17.8 12.96 15.82 12.96 13.75C12.96 11.67 13.86 9.69 15.47 8.22C17.08 6.76 19.27 5.93 21.54 5.93C23.82 5.93 26 6.76 27.61 8.22C29.22 9.69 30.13 11.67 30.13 13.75Z" fill="#FFFFFF" fill-opacity="1.000000" fill-rule="evenodd"/>
</svg>
